<svg id="visual" viewBox="0 0 900 450" width="900" height="450" xmlns="http://www.w3.org/2000/svg" xmlns:xlink="http://www.w3.org/1999/xlink" version="1.1"><g stroke-width="1" stroke-linejoin="bevel"><path d="M498 188L613 217L491 0Z" fill="#1d3d55" stroke="#1d3d55"></path><path d="M613 217L707 141L491 0Z" fill="#172029" stroke="#172029"></path><path d="M491 0L430 70L498 188Z" fill="#1b5174" stroke="#1b5174"></path><path d="M707 141L746 0L491 0Z" fill="#1b5174" stroke="#1b5174"></path><path d="M483 450L669 344L613 217Z" fill="#1d3d55" stroke="#1d3d55"></path><path d="M613 217L669 344L707 141Z" fill="#106795" stroke="#106795"></path><path d="M707 141L900 0L746 0Z" fill="#0d0d0d" stroke="#0d0d0d"></path><path d="M491 0L327 0L430 70Z" fill="#1d4764" stroke="#1d4764"></path><path d="M430 70L335 378L498 188Z" fill="#1d4764" stroke="#1d4764"></path><path d="M900 212L900 0L707 141Z" fill="#1d4764" stroke="#1d4764"></path><path d="M669 344L900 212L707 141Z" fill="#0072a6" stroke="#0072a6"></path><path d="M483 450L648 450L669 344Z" fill="#1b5174" stroke="#1b5174"></path><path d="M669 344L900 386L900 212Z" fill="#1d3d55" stroke="#1d3d55"></path><path d="M483 450L613 217L498 188Z" fill="#185c85" stroke="#185c85"></path><path d="M335 378L483 450L498 188Z" fill="#106795" stroke="#106795"></path><path d="M145 65L335 378L430 70Z" fill="#14181c" stroke="#14181c"></path><path d="M327 0L145 65L430 70Z" fill="#1c3346" stroke="#1c3346"></path><path d="M900 450L900 386L669 344Z" fill="#1c3346" stroke="#1c3346"></path><path d="M181 0L145 65L327 0Z" fill="#172029" stroke="#172029"></path><path d="M236 450L304 450L335 378Z" fill="#106795" stroke="#106795"></path><path d="M335 378L304 450L483 450Z" fill="#1b5174" stroke="#1b5174"></path><path d="M648 450L900 450L669 344Z" fill="#1a2a37" stroke="#1a2a37"></path><path d="M145 65L191 386L335 378Z" fill="#1b5174" stroke="#1b5174"></path><path d="M191 386L236 450L335 378Z" fill="#1c3346" stroke="#1c3346"></path><path d="M0 0L0 84L145 65Z" fill="#1d3d55" stroke="#1d3d55"></path><path d="M145 65L0 383L191 386Z" fill="#1d3d55" stroke="#1d3d55"></path><path d="M181 0L0 0L145 65Z" fill="#1d3d55" stroke="#1d3d55"></path><path d="M0 84L0 383L145 65Z" fill="#1a2a37" stroke="#1a2a37"></path><path d="M191 386L0 450L236 450Z" fill="#1a2a37" stroke="#1a2a37"></path><path d="M0 383L0 450L191 386Z" fill="#14181c" stroke="#14181c"></path></g></svg>