<svg id="visual" viewBox="0 0 900 450" width="900" height="450" xmlns="http://www.w3.org/2000/svg" xmlns:xlink="http://www.w3.org/1999/xlink" version="1.1"><path d="M0 257L37.5 267.2C75 277.3 150 297.7 225 295.8C300 294 375 270 450 270.5C525 271 600 296 675 304.2C750 312.3 825 303.7 862.5 299.3L900 295L900 451L862.5 451C825 451 750 451 675 451C600 451 525 451 450 451C375 451 300 451 225 451C150 451 75 451 37.5 451L0 451Z" fill="#001122" stroke-linecap="round" stroke-linejoin="miter"></path></svg>